# xmcd CD database file
#
# Track frame offsets:
#	150
#	13430
#	34205
#	48018
#	61538
#	77911
#	93413
#	111910
#	125765
#	141373
#	158285
#	173271
#
# Disc length: 2574 seconds
#
# Revision: 0
# Processed by: cddbd v1.5.1PL0 Copyright (c) Steve Scherf et al.
# Submitted via: CDex 1.40Release
#
DISCID=910a0c0c
DTITLE=Western Heartbeat - Like a Hurricane
DYEAR=2003
DGENRE=Country
TTITLE0=Let 'er rip 
TTITLE1=Past the point of  rescue
TTITLE2=Hurricane 
TTITLE3=Turn it loose
TTITLE4=Angles love bad men
TTITLE5=I feel lucky
TTITLE6=River runs deep
TTITLE7=Two more bottles of wine
TTITLE8=Willow in the wind
TTITLE9=Set you free
TTITLE10=O Mexico
TTITLE11=Ghost Riders in the sky
EXTD=YEAR: 2003 ID3G: 2
EXTT0=
EXTT1=
EXTT2=
EXTT3=
EXTT4=
EXTT5=
EXTT6=
EXTT7=
EXTT8=
EXTT9=
EXTT10=
EXTT11=
PLAYORDER=
